Coordinates
version=1
nRows=26
nColumns=24
inDegrees=yes

Units are S.I. units (second, meters, Newtons, ...)
Angles are in degrees.

endheader
time	pelvis_tilt	pelvis_list	pelvis_rotation	pelvis_tx	pelvis_ty	pelvis_tz	hip_flexion_r	hip_adduction_r	hip_rotation_r	knee_angle_r	ankle_angle_r	subtalar_angle_r	mtp_angle_r	hip_flexion_l	hip_adduction_l	hip_rotation_l	knee_angle_l	ankle_angle_l	subtalar_angle_l	mtp_angle_l	lumbar_extension	lumbar_bending	lumbar_rotation
      0.66466667	     -3.37635455	     -4.23968161	      3.53746170	     -0.46055204	      0.90119515	      0.30966082	     15.20640341	     10.83546189	     -1.16855484	    -23.33347441	     12.49930730	     -4.39744893	      1.96842430	     24.35629957	     -8.36005368	     -6.22697723	    -78.00576652	      1.82133974	     -7.94108628	     -0.20845974	     -7.11380639	      5.79759335	      1.46236928
      0.66883333	     -3.43854963	     -4.03496604	      3.43066391	     -0.45500303	      0.90240050	      0.30966501	     14.54498065	     10.65535199	     -0.95763848	    -22.73017541	     12.54290400	     -4.30504321	      1.98763706	     25.08544314	     -8.03883345	     -6.35642148	    -77.60075571	      2.20443531	     -8.39126565	     -0.28100120	     -7.08713896	      5.58253502	      1.64066850
      0.67300000	     -3.49120451	     -3.82953673	      3.31380976	     -0.44944097	      0.90359152	      0.30967530	     13.87204006	     10.47288131	     -0.74267160	    -22.12234610	     12.55618945	     -4.20203323	      1.99874433	     25.77740957	     -7.72058344	     -6.49129569	    -77.11904103	      2.61502973	     -8.77803295	     -0.32293836	     -7.07512822	      5.37793927	      1.76366933
      0.67716667	     -3.51857245	     -3.61147830	      3.18453560	     -0.44385305	      0.90481210	      0.30971029	     13.16187732	     10.27892741	     -0.51136996	    -21.49611579	     12.57128765	     -4.11670169	      2.01036103	     26.40642102	     -7.39802411	     -6.64246226	    -76.54139128	      2.95656618	     -9.15295561	     -0.36845947	     -7.08708180	      5.14500850	      1.92486815
      0.68133333	     -3.51484077	     -3.39501283	      3.05285574	     -0.43824005	      0.90604617	      0.30976169	     12.40660579	     10.08720128	     -0.27226067	    -20.84501625	     12.60262111	     -4.05057020	      2.03104715	     26.97672479	     -7.08707739	     -6.79679614	    -75.88692321	      3.23053098	     -9.49385017	     -0.44490423	     -7.13309434	      4.90732085	      2.16996922
      0.68550000	     -3.50930115	     -3.17849395	      2.90494083	     -0.43262718	      0.90723558	      0.30982821	     11.65610709	      9.89225125	     -0.03014601	    -20.20307166	     12.60240713	     -3.96916505	      2.04959923	     27.51769221	     -6.78287984	     -6.95840692	    -75.16348988	      3.54257299	     -9.76890053	     -0.51579036	     -7.18173574	      4.67373120	      2.36187541
      0.68966667	     -3.49782713	     -2.95477384	      2.73835528	     -0.42700851	      0.90838907	      0.30991032	     10.90603242	      9.68474440	      0.20990465	    -19.57157673	     12.57451634	     -3.87168497	      2.06144761	     28.02078113	     -6.48015050	     -7.13464566	    -74.36525836	      3.86630936	    -10.00392189	     -0.56426242	     -7.23415812	      4.43219625	      2.51673363
      0.69383333	     -3.46769380	     -2.73804334	      2.57133324	     -0.42139061	      0.90951620	      0.30999745	     10.13329434	      9.48267613	      0.45791821	    -18.92868344	     12.56020951	     -3.78090471	      2.07263624	     28.48393043	     -6.18881761	     -7.29972715	    -73.50238328	      4.13698952	    -10.19718430	     -0.61001168	     -7.31209814	      4.20411867	      2.69405024
      0.69800000	     -3.41682904	     -2.52548773	      2.39440111	     -0.41575945	      0.91061859	      0.31010306	      9.33649480	      9.28184124	      0.70530536	    -18.27791791	     12.53929952	     -3.69675937	      2.08360666	     28.89867012	     -5.91376027	     -7.47029984	    -72.57417214	      4.38918870	    -10.35883442	     -0.65647427	     -7.40967322	      3.97056252	      2.88936888
      0.70216667	     -3.33869640	     -2.33664175	      2.22298899	     -0.41011605	      0.91168495	      0.31022528	      8.49947585	      9.10705138	      0.95872198	    -17.59818931	     12.53969991	     -3.65151529	      2.10251080	     29.26888122	     -5.67249164	     -7.62515231	    -71.59609831	      4.60658904	    -10.48141063	     -0.72933729	     -7.53529865	      3.76289509	      3.16196458
      0.70633333	     -3.29331819	     -2.12696071	      2.02078188	     -0.40450533	      0.91264404	      0.31035306	      7.73108938	      8.89778439	      1.19878872	    -16.97804798	     12.47917288	     -3.54642624	      2.11263421	     29.64219933	     -5.41299684	     -7.79945109	    -70.54618653	      4.85228079	    -10.56364815	     -0.77342288	     -7.62677000	      3.53230237	      3.32286215
      0.71050000	     -3.21517071	     -1.93680312	      1.82541117	     -0.39887723	      0.91357503	      0.31048872	      6.91721423	      8.70763226	      1.43974346	    -16.33339586	     12.45148993	     -3.46025832	      2.12415264	     29.96220802	     -5.18017565	     -7.95585591	    -69.44366220	      5.05913594	    -10.62653134	     -0.82040452	     -7.75067000	      3.32136692	      3.52570781
      0.71466667	     -3.13368205	     -1.76064270	      1.62527043	     -0.39327157	      0.91442550	      0.31063483	      6.10766824	      8.52764828	      1.67763292	    -15.69424286	     12.42095880	     -3.38150056	      2.13693331	     30.26274185	     -4.96946697	     -8.10514537	    -68.29248796	      5.25182751	    -10.66037473	     -0.86922178	     -7.87998199	      3.12658699	      3.74608943
      0.71883333	     -3.05449098	     -1.59352578	      1.42147122	     -0.38766257	      0.91519215	      0.31078541	      5.30840851	      8.35132362	      1.90539518	    -15.06574017	     12.38432992	     -3.29775733	      2.14965005	     30.54522162	     -4.77165228	     -8.24597706	    -67.08969276	      5.43401950	    -10.66664475	     -0.91610018	     -8.00495482	      2.93499832	      3.95992374
      0.72300000	     -2.98320680	     -1.43663334	      1.21267200	     -0.38207056	      0.91586359	      0.31093923	      4.52774914	      8.17976437	      2.12359109	    -14.44892944	     12.34830836	     -3.20090257	      2.16230015	     30.81858076	     -4.58794808	     -8.37720067	    -65.83640780	      5.60140678	    -10.65531767	     -0.95864137	     -8.11860334	      2.75636534	      4.16714681
      0.72716667	     -2.88685327	     -1.31456449	      1.01713417	     -0.37647826	      0.91647155	      0.31109242	      3.71115033	      8.04392766	      2.34303501	    -13.80777303	     12.34454997	     -3.14112107	      2.18445452	     31.05560875	     -4.44459894	     -8.48214444	    -64.55030716	      5.75089677	    -10.62797723	     -1.02273760	     -8.25828240	      2.62197787	      4.44459006
      0.73133333	     -2.82117642	     -1.18696884	      0.80690056	     -0.37091503	      0.91695723	      0.31124493	      2.95187373	      7.89294764	      2.54642177	    -13.20741764	     12.31449642	     -3.04837287	      2.20705031	     31.30219024	     -4.29758410	     -8.58821384	    -63.20536728	      5.89056110	    -10.58306953	     -1.08248422	     -8.36731650	      2.47362576	      4.66606558
      0.73550000	     -2.75709171	     -1.07185709	      0.59818000	     -0.36535742	      0.91735565	      0.31139761	      2.20284682	      7.74991876	      2.73685733	    -12.61999289	     12.28793760	     -2.94159055	      2.23242908	     31.53179617	     -4.16521441	     -8.68106342	    -61.81244805	      6.01508065	    -10.52661573	     -1.14296634	     -8.47099342	      2.34032012	      4.88792592
      0.73966667	     -2.70329280	     -0.96894976	      0.38834108	     -0.35980834	      0.91765109	      0.31154215	      1.47584141	      7.61310534	      2.90548042	    -12.04846570	     12.27316415	     -2.82112850	      2.25749928	     31.75394083	     -4.04857625	     -8.76568637	    -60.37305044	      6.12132344	    -10.46321343	     -1.19510338	     -8.56104567	      2.22077391	      5.09651836
      0.74383333	     -2.67651019	     -0.87095008	      0.17362529	     -0.35427618	      0.91783042	      0.31168041	      0.79845271	      7.47457005	      3.05549630	    -11.51255618	     12.23785760	     -2.68012529	      2.27592362	     31.98365952	     -3.93706344	     -8.83836791	    -58.88146041	      6.20850447	    -10.38552064	     -1.22980426	     -8.61620835	      2.10101739	      5.26688191
      0.74800000	     -2.62705258	     -0.81165863	     -0.02195391	     -0.34873660	      0.91793649	      0.31180355	      0.08181067	      7.37697348	      3.20573811	    -10.94573643	     12.25840412	     -2.55095784	      2.31160809	     32.18092965	     -3.86270247	     -8.87748219	    -57.36684019	      6.28184419	    -10.31966248	     -1.28411257	     -8.70892946	      2.03411515	      5.52795917
      0.75216667	     -2.62202973	     -0.74144235	     -0.23159460	     -0.34320047	      0.91791274	      0.31192148	     -0.55599245	      7.25877479	      3.31925262	    -10.43622288	     12.24092656	     -2.39771256	      2.33489920	     32.39573574	     -3.78401098	     -8.93032430	    -55.78874218	      6.32984017	    -10.22748383	     -1.31563994	     -8.73047822	      1.94936913	      5.69584193
      0.75633333	     -2.60882528	     -0.69652955	     -0.42956973	     -0.33766053	      0.91781079	      0.31202259	     -1.20586961	      7.16468672	      3.42405631	     -9.92082981	     12.25461297	     -2.23064964	      2.36143410	     32.58666427	     -3.72747125	     -8.95577699	    -54.17890550	      6.36066857	    -10.13874109	     -1.34554545	     -8.76935611	      1.89378532	      5.89197672
      0.76050000	     -2.59296185	     -0.67325742	     -0.61850713	     -0.33210945	      0.91762064	      0.31209820	     -1.85819431	      7.08986409	      3.51578586	     -9.40795373	     12.30933230	     -2.05230340	      2.40556600	     32.75799644	     -3.69033295	     -8.96125911	    -52.53783259	      6.37470353	    -10.06335136	     -1.38493611	     -8.81651146	      1.87299394	      6.13846251
      0.76466667	     -2.62027618	     -0.64642619	     -0.81965220	     -0.32654705	      0.91730301	      0.31218039	     -2.43903937	      7.00619685	      3.58091146	     -8.94484364	     12.31239915	     -1.86138580	      2.43718265	     32.94570726	     -3.65926526	     -8.97785635	    -50.84547728	      6.36385731	     -9.94387597	     -1.40941102	     -8.79857919	      1.83438725	      6.30928537
      0.76883333	     -2.63691170	     -0.64135959	     -1.01023418	     -0.32097340	      0.91691448	      0.31224114	     -3.03267372	      6.94340174	      3.63972186	     -8.48304795	     12.36191273	     -1.65232493	      2.47467255	     33.10510698	     -3.64494465	     -8.96839599	    -49.12584378	      6.33425298	     -9.84009762	     -1.43211016	     -8.79138022	      1.82744141	      6.50589921
